<?xml version="1.0" encoding="UTF-8"?>
<svg id="Layer_2" data-name="Layer 2" xmlns="http://www.w3.org/2000/svg" viewBox="0 0 1082.07 149.6">
  <g id="Layer_1-2" data-name="Layer 1">
    <g>
      <path d="m110.5,59.5c0,33.83-25.67,59.5-61.2,59.5H0V0h49.3c35.53,0,61.2,25.67,61.2,59.5Zm-17.85,0c0-24.82-17.68-44.2-46.75-44.2h-21.59s0,88.4,0,88.4h21.59c29.07,0,46.75-19.38,46.75-44.2Z"/>
      <path d="m193.75,61.2h-17c0-11.39-4.08-21.25-17-21.25s-18.65,9.86-18.65,45.05v34h-23V27.2h23v39.27c2.89-28.05,6.92-40.97,24.6-40.97,20.4,0,28.05,15.47,28.05,35.7Z"/>
      <path d="m298.2,72.25c0,26.01-15.13,48.45-46.41,48.45s-52.19-22.27-52.19-48.45,20.91-48.45,50.49-48.45c32.98,0,48.11,22.27,48.11,48.45Zm-1.7,0h-79.9c0,18.7,14.45,33.15,39.1,33.15s39.95-12.92,40.8-33.15Zm-77.86-12.75h61.2c-3.23-12.75-12.07-21.42-30.09-21.42-16.15,0-27.03,8.67-31.11,21.42Z"/>
      <path d="m410.14,73.78c0,35.87-8.2,46.92-20.61,46.92-8.33,0-17.64-4.93-17.64-17v-33.32h-8.5c0,24.65-8.16,50.32-34.85,50.32-14.62,0-24.99-8.67-24.99-21.59,0-19.21,20.91-26.86,44.54-29.41-23.97-1.19-37.4-6.29-37.4-20.23,0-15.81,14.45-25.67,37.57-25.67,24.82,0,42.63,12.07,42.63,39.1v35.7c0,5.61,2.38,7.65,5.61,7.65,4.76,0,11.94-4.25,11.94-34.34,0-16.15-2.72-30.77-6.29-46.41h1.7c3.4,15.64,6.29,29.58,6.29,48.28Zm-38.25-9.18c0-12.75-5.1-26.35-29.24-26.35-14.28,0-24.31,4.93-24.31,14.45,0,11.73,12.75,15.98,43.35,15.98h10.2v-4.08Zm-10.2,5.78c-28.73,0-41.99,8.5-41.99,22.27,0,9.18,5.95,13.6,14.79,13.6,18.36,0,27.2-14.28,27.2-35.87Z"/>
      <path d="m552.3,57.8v61.2h-17v-57.8c0-14.79-6.97-22.95-19.21-22.95s-21.59,8.16-21.59,22.95v57.8h-17v-57.8c0-14.79-6.97-22.95-19.21-22.95s-15.59,8.16-15.59,22.95v57.8h-23V25.5h23v25.84c2.89-15.81,6.75-27.54,23.75-27.54s26.35,11.39,27.88,28.9c2.55-16.49,12.41-28.9,29.92-28.9,18.7,0,28.05,13.77,28.05,34Z"/>
      <path d="m650,90.44c0,17.68-17.34,30.26-46.75,30.26-27.2,0-42.5-13.26-42.5-29.58,0-8.33,3.57-15.64,11.05-21.25-5.27-3.74-8.5-9.18-8.5-17.34,0-14.79,10.14-28.73,43.52-28.73,29.58,0,39.1,15.47,39.78,32.3-22.27,0-39.44,1.87-52.19,5.44,3.4.51,7.31,1.02,11.9,1.53,31.96,3.4,43.69,10.2,43.69,27.37Zm-17,3.06c0-9.01-6.63-12.24-30.6-15.13-10.54-1.36-21.08-2.89-28.56-7.14-5.44,4.59-7.99,10.2-7.99,16.32,0,14.62,15.81,22.1,32.13,22.1,24.99,0,35.02-8.5,35.02-16.15Zm-42.33-32.81c10.2-3.06,23.12-5.1,38.76-5.95-.85-7.65-6.46-16.49-25.16-16.49-14.96,0-23.97,5.78-23.97,13.09,0,4.93,3.4,7.65,10.37,9.35Z"/>
      <path d="m706.84,120.7c-28.73,0-50.49-22.27-50.49-48.45s21.76-48.45,50.49-48.45,46.41,20.57,47.26,39.1h-17c-.85-11.56-10.37-23.8-30.6-23.8s-32.3,13.94-32.3,33.15,14.45,33.15,36.55,33.15,38.25-11.22,41.65-26.35h1.7c-1.7,19.21-18.53,41.65-47.26,41.65Z"/>
      <path d="m867.03,73.78c0,35.87-8.2,46.92-20.61,46.92-8.33,0-17.64-4.93-17.64-17v-33.32h-8.5c0,24.65-8.16,50.32-34.85,50.32-14.62,0-24.99-8.67-24.99-21.59,0-19.21,20.91-26.86,44.54-29.41-23.97-1.19-37.4-6.29-37.4-20.23,0-15.81,14.45-25.67,37.57-25.67,24.82,0,42.63,12.07,42.63,39.1v35.7c0,5.61,2.38,7.65,5.61,7.65,4.76,0,11.94-4.25,11.94-34.34,0-16.15-2.72-30.77-6.29-46.41h1.7c3.4,15.64,6.29,29.58,6.29,48.28Zm-38.25-9.18c0-12.75-5.1-26.35-29.24-26.35-14.28,0-24.31,4.93-24.31,14.45,0,11.73,12.75,15.98,43.35,15.98h10.2v-4.08Zm-10.2,5.78c-28.73,0-41.99,8.5-41.99,22.27,0,9.18,5.95,13.6,14.79,13.6,18.36,0,27.2-14.28,27.2-35.87Z"/>
      <path d="m979.27,72.25c0,26.18-12.87,48.45-39.9,48.45-23.8,0-36.38-17.17-39.78-39.1v68h-23V25.5h23v37.4c3.4-21.93,15.98-39.1,39.78-39.1,27.03,0,39.9,22.27,39.9,48.45Zm-17.85,0c0-18.7-6.92-33.15-28-33.15s-33.83,14.45-33.83,33.15,12.75,33.15,33.83,33.15,28-14.45,28-33.15Z"/>
      <path d="m1082.07,72.25c0,26.01-15.13,48.45-46.41,48.45s-50.19-22.27-50.19-48.45,18.91-48.45,48.49-48.45c32.98,0,48.11,22.27,48.11,48.45Zm-1.7,0h-79.9c0,18.7,14.45,33.15,39.1,33.15s39.95-12.92,40.8-33.15Zm-77.86-12.75h61.2c-3.23-12.75-12.07-21.42-30.09-21.42-16.15,0-27.03,8.67-31.11,21.42Z"/>
    </g>
  </g>
</svg>