<?xml version="1.0" encoding="UTF-8"?>
<svg id="Layer_2" data-name="Layer 2" xmlns="http://www.w3.org/2000/svg" viewBox="0 0 815.83 127.5">
  <g id="Layer_1-2" data-name="Layer 1">
    <g>
      <path d="m55.25,22.1v88.4h38.25v15.3H0v-15.3h38.25V22.1H0V6.8h93.5v15.3h-38.25Z"/>
      <path d="m195.5,71.4v54.4h-17v-51c0-19.89-10.2-29.75-27.2-29.75s-30.6,9.86-30.6,29.75v51h-17V32.3h17v31.96c3.4-20.06,16.49-33.66,38.25-33.66,23.8,0,36.55,15.47,36.55,40.8Z"/>
      <path d="m305.66,32.3l-36.04,93.5h-28.22l-37.06-93.5h18.36l30.43,78.2h5.1l29.58-78.2h17.85Z"/>
      <path d="m412.59,80.58c0,35.87-10.2,46.92-22.61,46.92-8.33,0-15.64-4.93-15.64-17v-33.32h-8.5c0,24.65-8.16,50.32-34.85,50.32-14.62,0-24.99-8.67-24.99-21.59,0-19.21,20.91-26.86,44.54-29.41-23.97-1.19-37.4-6.29-37.4-20.23,0-15.81,14.45-25.67,37.57-25.67,24.82,0,40.63,12.07,40.63,39.1v35.7c0,5.61,2.38,7.65,5.61,7.65,4.76,0,13.94-4.25,13.94-34.34,0-16.15-2.72-30.77-6.29-46.41h1.7c3.4,15.64,6.29,29.58,6.29,48.28Zm-38.25-9.18c0-12.75-5.1-26.35-29.24-26.35-14.28,0-24.31,4.93-24.31,14.45,0,11.73,12.75,15.98,43.35,15.98h10.2v-4.08Zm-10.2,5.78c-28.73,0-41.99,8.5-41.99,22.27,0,9.18,5.95,13.6,14.79,13.6,18.36,0,27.2-14.28,27.2-35.87Z"/>
      <path d="m522.58,0v125.8h-17v-37.4c-3.4,21.93-15.98,39.1-39.78,39.1-27.03,0-45.9-22.27-45.9-48.45s18.87-48.45,45.9-48.45c23.8,0,36.38,17.17,39.78,39.1V0h17Zm-17,79.05c0-18.7-12.75-33.15-33.83-33.15s-34,14.45-34,33.15,12.92,33.15,34,33.15,33.83-14.45,33.83-33.15Z"/>
      <path d="m635.63,79.05c0,26.01-15.13,48.45-46.41,48.45s-52.19-22.27-52.19-48.45,20.91-48.45,50.49-48.45c32.98,0,48.11,22.27,48.11,48.45Zm-1.7,0h-79.9c0,18.7,14.45,33.15,39.1,33.15s39.95-12.92,40.8-33.15Zm-77.86-12.75h61.2c-3.23-12.75-12.07-21.42-30.09-21.42-16.15,0-27.03,8.67-31.11,21.42Z"/>
      <path d="m725.73,68h-17c0-11.39-4.08-21.25-17-21.25s-24.65,9.86-24.65,45.05v34h-17V34h17v39.27c2.89-28.05,12.92-40.97,30.6-40.97,20.4,0,28.05,15.47,28.05,35.7Z"/>
      <path d="m815.83,97.24c0,17.68-17.34,30.26-46.75,30.26-27.2,0-42.5-13.26-42.5-29.58,0-8.33,3.57-15.64,11.05-21.25-5.27-3.74-8.5-9.18-8.5-17.34,0-14.79,15.47-28.73,43.52-28.73,29.58,0,39.1,15.47,39.78,32.3-22.27,0-39.44,1.87-52.19,5.44,3.4.51,7.31,1.02,11.9,1.53,31.96,3.4,43.69,10.2,43.69,27.37Zm-17,3.06c0-9.01-6.63-12.24-30.6-15.13-10.54-1.36-21.08-2.89-28.56-7.14-5.44,4.59-7.99,10.2-7.99,16.32,0,14.62,15.81,22.1,32.13,22.1,24.99,0,35.02-8.5,35.02-16.15Zm-42.33-32.81c10.2-3.06,23.12-5.1,38.76-5.95-.85-7.65-6.46-16.49-25.16-16.49-14.96,0-23.97,5.78-23.97,13.09,0,4.93,3.4,7.65,10.37,9.35Z"/>
    </g>
  </g>
</svg>