<?xml version="1.0" encoding="UTF-8"?>
<svg id="Layer_2" data-name="Layer 2" xmlns="http://www.w3.org/2000/svg" viewBox="0 0 287.68 97.5">
  <defs>
    <style>
      .cls-1 {
        fill: #fff;
      }
    </style>
  </defs>
  <g id="Layer_1-2" data-name="Layer 1">
    <g>
      <path class="cls-1" d="m0,7.5h18.36V0h12.24v7.5h18.36v7.5H0v-7.5Zm0,30h6.12v-7.5h6.12v-7.5h24.48v7.5h6.12v7.5h6.12v37.5h-6.12v7.5h-6.12v7.5H12.24v-7.5h-6.12v-7.5H0v-37.5Zm12.24,0v37.5h6.12v7.5h12.24v-7.5h6.12v-37.5h-6.12v-7.5h-12.24v7.5h-6.12Zm36.72,7.5h18.36V0h12.24v97.5h-12.24v-45h-18.36v-7.5Z"/>
      <path class="cls-1" d="m97.93,0h48.97v45h-6.12v7.5h-36.73v-7.5h-6.12V0Zm6.12,67.5h12.24v-7.5h42.85v7.5h12.24v22.5h-12.24v7.5h-42.85v-7.5h-12.24v-22.5Zm6.12-60v37.5h24.48V7.5h-24.48Zm6.12,67.5v7.5h6.12v7.5h30.6v-7.5h6.12v-7.5h-6.12v-7.5h-30.6v7.5h-6.12ZM159.14,0h12.24v22.5h18.36v7.5h-18.36v22.5h-12.24V0Z"/>
      <path class="cls-1" d="m195.87,7.5h18.36V0h12.24v7.5h18.36v7.5h-12.24v7.5h12.24v22.5h-12.24v7.5h-24.48v-7.5h-12.24v-22.5h12.24v-7.5h-12.24v-7.5Zm6.12,52.5h67.33v30h-6.12v7.5h-55.09v-7.5h-6.12v-30Zm6.12-30v7.5h6.12v7.5h12.24v-7.5h6.12v-7.5h-6.12v-7.5h-12.24v7.5h-6.12Zm6.12,37.5v22.5h42.85v-22.5h-42.85ZM257.07,0h12.24v22.5h18.36v7.5h-18.36v22.5h-12.24V0Z"/>
    </g>
  </g>
</svg>